<?xml version="1.0" encoding="UTF-8"?>
<!DOCTYPE svg PUBLIC "-//W3C//DTD SVG 1.1//EN" "http://www.w3.org/Graphics/SVG/1.1/DTD/svg11.dtd">
<!-- Creator: CorelDRAW (Evaluation Version) -->
<svg xmlns="http://www.w3.org/2000/svg" xml:space="preserve" width="600px" height="550px" version="1.1" style="shape-rendering:geometricPrecision; text-rendering:geometricPrecision; image-rendering:optimizeQuality; fill-rule:evenodd; clip-rule:evenodd"
viewBox="0 0 600 550"
 xmlns:xlink="http://www.w3.org/1999/xlink"
 xmlns:xodm="http://www.corel.com/coreldraw/odm/2003">
 <defs>
  <style type="text/css">
   <![CDATA[
    .str0 {stroke:#2D2A2B;stroke-width:0.667;stroke-miterlimit:2.61313}
    .str1 {stroke:black;stroke-width:10;stroke-linecap:round;stroke-miterlimit:2.61313}
    .fil1 {fill:none}
    .fil2 {fill:#1A1A1A}
    .fil0 {fill:#FF6B6B}
   ]]>
  </style>
 </defs>
 <g id="Layer_x0020_1">
  <metadata id="CorelCorpID_0Corel-Layer"/>
  <path class="fil0 str0" d="M301.312 73.424c32.294,33.215 38.495,68.497 41.89,109.745 17.146,9.847 80.84,50.736 80.091,62.902 -4.191,68.008 -52.897,109.187 -112.312,105.572 -18.275,-1.111 -36.145,-3.436 -53.312,-2.742 -15.732,0.635 -33.219,0.791 -45.197,12.776 -69.139,69.182 24.522,158.933 79.145,177.717 553.56,-345.766 215.328,-643.779 10.755,-464.938 -1.06,-1.032 -0.708,-0.678 -1.06,-1.032z"/>
  <path class="fil1 str1" d="M291.617 539.394c-110.293,-61.219 -292.558,-213.367 -289.837,-353.782 0.013,-0.688 0.052,-1.366 0.074,-2.051 4.808,-156.053 197.174,-214.172 299.214,-110.385l0.008 0.006 0.088 0.091 0.003 0.003 0.093 0.095 0.017 0.017 0.017 0.017 0.018 0.019c0.352,0.354 0.714,0.673 1.06,1.032 195.194,-178.11 542.805,119.172 -10.755,464.938zm-45.021 -27.542c-86.933,-66.655 -57.268,-135.677 -34.124,-150.175 14.321,-8.97 29.465,-12.141 45.197,-12.776 17.167,-0.694 35.037,1.631 53.312,2.742 59.415,3.615 108.121,-37.564 112.312,-105.572 0.749,-12.166 -62.945,-53.055 -80.091,-62.902 -3.395,-41.248 -9.596,-76.53 -41.89,-109.745l-0.018 -0.019 -0.017 -0.017 -0.017 -0.017 -0.093 -0.095 -0.003 -0.003 -0.088 -0.091 -0.008 -0.006m-155.381 28.565l0.201 0.57c84.499,229.943 -144.408,258.769 -144.108,83.301 0.001,-0.673 -0.025,-1.32 -0.017,-2m247.303 -5.396c-5.798,0 -10.498,4.844 -10.498,10.816 0,5.973 4.7,10.817 10.498,10.817 5.799,0 10.498,-4.844 10.498,-10.817 0,-5.972 -4.699,-10.816 -10.498,-10.816z"/>
  <path class="fil2 str0" d="M249.066 199.849c5.799,0 10.498,-4.844 10.498,-10.817 0,-5.972 -4.699,-10.816 -10.498,-10.816 -5.798,0 -10.498,4.844 -10.498,10.816 0,5.973 4.7,10.817 10.498,10.817z"/>
 </g>
</svg>
