<svg xmlns="http://www.w3.org/2000/svg" xmlns:xlink="http://www.w3.org/1999/xlink" zoomAndPan="magnify" preserveAspectRatio="xMidYMid meet" version="1.2" viewBox="5.45 46.08 336.75 256.4">
<defs><clipPath id="4eb2566f4e">
<path d="M 40.210938 46.109375 L 296.710938 46.109375 L 296.710938 302.609375 L 40.210938 302.609375 Z M 40.210938 46.109375 "/>
</clipPath></defs>
<g id="fd1dac7880">
<g clip-rule="nonzero" clip-path="url(#4eb2566f4e)">
<path style=" stroke:none;fill-rule:nonzero;fill:#000000;fill-opacity:1;" d="M 168.386719 46.109375 C 97.683594 46.109375 40.210938 103.636719 40.210938 174.285156 C 40.210938 244.984375 97.683594 302.457031 168.386719 302.457031 C 239.035156 302.457031 296.558594 244.984375 296.558594 174.285156 C 296.558594 103.636719 239.035156 46.109375 168.386719 46.109375 Z M 168.386719 292.460938 C 103.222656 292.460938 50.210938 239.449219 50.210938 174.285156 C 50.210938 109.121094 103.222656 56.109375 168.386719 56.109375 C 233.550781 56.109375 286.5625 109.121094 286.5625 174.285156 C 286.5625 239.449219 233.550781 292.460938 168.386719 292.460938 Z M 168.386719 292.460938 "/>
</g><path style=" stroke:none;fill-rule:nonzero;fill:#000000;fill-opacity:1;" d="M 168.386719 62.773438 C 106.914062 62.773438 56.875 112.8125 56.875 174.285156 C 56.875 235.757812 106.914062 285.796875 168.386719 285.796875 C 229.859375 285.796875 279.898438 235.757812 279.898438 174.285156 C 279.898438 112.8125 229.859375 62.773438 168.386719 62.773438 Z M 168.386719 62.773438 "/>
<g style="fill:#cf8c33;fill-opacity:1;">
<g transform="translate(2.686207, 220.145356)">
<path style="stroke:none" d="M 79.328125 10.78125 C 58.640625 11.769531 43.773438 6.628906 34.734375 -4.640625 C 23.835938 3.773438 15.851562 7.984375 10.78125 7.984375 C 8.050781 7.984375 6.035156 6.648438 4.734375 3.984375 C 3.429688 1.328125 2.78125 -1.546875 2.78125 -4.640625 C 2.78125 -10.585938 5.070312 -19.132812 9.65625 -30.28125 C 15.101562 -42.914062 20.117188 -49.234375 24.703125 -49.234375 C 27.054688 -49.234375 28.851562 -45.515625 30.09375 -38.078125 C 32.195312 -26.929688 34.117188 -19.253906 35.859375 -15.046875 C 39.941406 -19.378906 45.046875 -25.257812 51.171875 -32.6875 C 57.304688 -40.125 64.398438 -49.109375 72.453125 -59.640625 C 92.515625 -86.015625 105.828125 -100.441406 112.390625 -102.921875 C 114.617188 -103.785156 116.847656 -104.21875 119.078125 -104.21875 C 121.554688 -104.21875 123.570312 -103.691406 125.125 -102.640625 C 126.675781 -101.585938 127.453125 -100.378906 127.453125 -99.015625 C 127.453125 -96.910156 125.65625 -95.675781 122.0625 -95.3125 C 119.457031 -93.945312 116.265625 -91.59375 112.484375 -88.25 C 108.710938 -84.90625 104.75 -81.09375 100.59375 -76.8125 C 96.445312 -72.539062 92.578125 -68.332031 88.984375 -64.1875 C 85.390625 -60.039062 82.476562 -56.476562 80.25 -53.5 C 67 -35.050781 53.75 -20.3125 40.5 -9.28125 L 39.390625 -8.359375 C 43.347656 -2.535156 48.113281 1.488281 53.6875 3.71875 C 59.257812 5.945312 65.453125 7.0625 72.265625 7.0625 C 83.535156 7.0625 94.28125 5.359375 104.5 1.953125 C 114.71875 -1.453125 123.941406 -6.53125 132.171875 -13.28125 C 140.410156 -20.03125 147.195312 -28.296875 152.53125 -38.078125 C 158.351562 -48.734375 161.265625 -58.890625 161.265625 -68.546875 C 161.265625 -75.117188 159.835938 -81.34375 156.984375 -87.21875 C 154.140625 -93.101562 150.332031 -98.148438 145.5625 -102.359375 C 140.789062 -106.578125 135.492188 -109.304688 129.671875 -110.546875 C 122.859375 -112.023438 115.738281 -112.765625 108.3125 -112.765625 C 89.238281 -112.765625 71.648438 -108.367188 55.546875 -99.578125 C 38.578125 -90.285156 30.09375 -79.882812 30.09375 -68.375 C 30.09375 -65.269531 31.023438 -62.601562 32.890625 -60.375 C 34.367188 -58.644531 35.421875 -57.65625 36.046875 -57.40625 L 34.921875 -57.40625 C 31.453125 -58.019531 28.476562 -59.75 26 -62.59375 C 23.53125 -65.445312 22.296875 -68.609375 22.296875 -72.078125 C 22.296875 -78.523438 24.304688 -84.441406 28.328125 -89.828125 C 32.359375 -95.210938 38.210938 -100.132812 45.890625 -104.59375 C 61.242188 -113.382812 79.390625 -117.78125 100.328125 -117.78125 C 105.023438 -117.78125 109.726562 -117.53125 114.4375 -117.03125 C 119.144531 -116.539062 123.789062 -115.800781 128.375 -114.8125 C 136.425781 -113.082031 143.734375 -109.800781 150.296875 -104.96875 C 156.859375 -100.132812 162.117188 -94.25 166.078125 -87.3125 C 170.046875 -80.375 172.03125 -72.882812 172.03125 -64.84375 C 172.03125 -55.550781 169.304688 -45.953125 163.859375 -36.046875 C 158.410156 -26.015625 151.378906 -17.625 142.765625 -10.875 C 134.160156 -4.125 124.46875 1.015625 113.6875 4.546875 C 102.914062 8.078125 91.460938 10.15625 79.328125 10.78125 Z M 11.703125 4.640625 C 17.023438 2.285156 23.46875 -2.601562 31.03125 -10.03125 C 27.4375 -15.976562 25.082031 -20.992188 23.96875 -25.078125 C 23.21875 -27.804688 22.660156 -31.957031 22.296875 -37.53125 C 13.742188 -25.269531 9.46875 -14.554688 9.46875 -5.390625 C 9.46875 -1.546875 10.210938 1.796875 11.703125 4.640625 Z M 11.703125 4.640625 "/>
</g></g><g style="fill:#cf8c33;fill-opacity:1;">
<g transform="translate(137.620483, 221.505995)">
<path style="stroke:none" d="M 40.734375 23.84375 C 30.578125 23.84375 22.441406 21.242188 16.328125 16.046875 C 10.210938 10.847656 7.15625 3.722656 7.15625 -5.328125 C 7.15625 -11.441406 8.5 -17.003906 11.1875 -22.015625 C 14.613281 -28.742188 19.257812 -34.890625 25.125 -40.453125 C 31 -46.015625 37.390625 -50.507812 44.296875 -53.9375 C 51.210938 -57.363281 57.910156 -59.078125 64.390625 -59.078125 C 72.710938 -59.078125 79.226562 -57.117188 83.9375 -53.203125 C 88.644531 -49.285156 91 -44.148438 91 -37.796875 C 91 -34.367188 90.296875 -31.0625 88.890625 -27.875 C 87.484375 -24.695312 85.738281 -22.007812 83.65625 -19.8125 C 80.601562 -16.382812 78.160156 -14.671875 76.328125 -14.671875 C 75.835938 -14.671875 75.59375 -14.914062 75.59375 -15.40625 C 75.59375 -15.78125 75.773438 -16.332031 76.140625 -17.0625 C 80.546875 -23.539062 82.75 -29.78125 82.75 -35.78125 C 82.75 -41.15625 81.035156 -45.613281 77.609375 -49.15625 C 74.179688 -52.707031 69.59375 -54.484375 63.84375 -54.484375 C 58.34375 -54.484375 52.835938 -52.863281 47.328125 -49.625 C 41.828125 -46.382812 36.78125 -42.164062 32.1875 -36.96875 C 27.601562 -31.769531 23.847656 -26.175781 20.921875 -20.1875 C 17.859375 -14.1875 16.328125 -8.375 16.328125 -2.75 C 16.328125 4.707031 18.742188 10.363281 23.578125 14.21875 C 28.410156 18.070312 34.738281 20 42.5625 20 C 73.75 20 106.285156 -7.273438 140.171875 -61.828125 C 160.472656 -94.359375 170.867188 -114.296875 171.359375 -121.640625 L 160.53125 -122.1875 C 157.59375 -122.3125 154.101562 -121.972656 150.0625 -121.171875 C 146.03125 -120.378906 142 -119.21875 137.96875 -117.6875 C 133.9375 -116.164062 130.296875 -114.394531 127.046875 -112.375 C 123.804688 -110.351562 121.515625 -108.117188 120.171875 -105.671875 C 119.066406 -103.835938 118.515625 -102.066406 118.515625 -100.359375 C 118.515625 -97.671875 119.675781 -94.976562 122 -92.28125 C 124.332031 -89.59375 125.5 -88.003906 125.5 -87.515625 C 125.5 -86.898438 124.765625 -86.472656 123.296875 -86.234375 C 122.921875 -86.109375 122.429688 -86.046875 121.828125 -86.046875 C 119.253906 -86.046875 116.804688 -87.207031 114.484375 -89.53125 C 111.796875 -92.21875 110.453125 -95.457031 110.453125 -99.25 C 110.453125 -102.675781 111.550781 -105.859375 113.75 -108.796875 C 116.8125 -112.953125 121.0625 -116.253906 126.5 -118.703125 C 131.945312 -121.148438 137.816406 -122.894531 144.109375 -123.9375 C 150.410156 -124.976562 156.375 -125.4375 162 -125.3125 C 163.101562 -125.3125 166.101562 -125.128906 171 -124.765625 C 170.75 -126.347656 171.390625 -127.84375 172.921875 -129.25 C 174.453125 -130.65625 176.191406 -131.359375 178.140625 -131.359375 C 181.816406 -131.359375 183.59375 -128.726562 183.46875 -123.46875 C 196.675781 -121.144531 203.648438 -117.597656 204.390625 -112.828125 C 204.503906 -112.335938 204.5625 -111.847656 204.5625 -111.359375 C 204.5625 -110.867188 204.5625 -110.441406 204.5625 -110.078125 C 204.5625 -107.628906 203.890625 -106.40625 202.546875 -106.40625 C 201.441406 -106.40625 200.890625 -107.203125 200.890625 -108.796875 C 200.890625 -109.035156 200.890625 -109.335938 200.890625 -109.703125 C 200.890625 -110.078125 200.953125 -110.445312 201.078125 -110.8125 C 198.023438 -115.34375 191.972656 -118.523438 182.921875 -120.359375 C 180.710938 -110.453125 169.210938 -88.925781 148.421875 -55.78125 C 142.066406 -45.625 134.726562 -35.804688 126.40625 -26.328125 C 118.09375 -16.847656 109.226562 -8.316406 99.8125 -0.734375 C 90.394531 6.847656 80.671875 12.835938 70.640625 17.234375 C 60.609375 21.640625 50.640625 23.84375 40.734375 23.84375 Z M 40.734375 23.84375 "/>
</g></g></g></svg>