<svg id="Layer_1" xmlns="http://www.w3.org/2000/svg" viewBox="0 0 222.6 21.83"><defs><style>.cls-1{fill:#000;stroke-width:0px;}</style></defs><path class="cls-1" d="M4.79,13.51c0,4.12.11,5.91.62,6.41.45.45,1.18.64,3.36.64,1.48,0,2.72-.03,3.39-.84.36-.45.64-1.15.73-1.68.03-.22.08-.36.25-.36.14,0,.17.11.17.42s-.2,1.99-.42,2.8c-.2.64-.28.76-1.76.76-2.02,0-3.47-.06-4.65-.08-1.18-.06-2.04-.08-2.86-.08-.11,0-.59.03-1.15.03-.56.03-1.18.06-1.6.06-.31,0-.45-.06-.45-.22,0-.08.06-.17.22-.17.25,0,.59-.06.84-.11.56-.11.7-.73.81-1.54.14-1.18.14-3.39.14-6.08v-4.93c0-4.37,0-5.15-.06-6.05-.06-.95-.28-1.4-1.2-1.6-.22-.06-.7-.08-.95-.08-.11,0-.22-.06-.22-.17,0-.17.14-.22.45-.22,1.26,0,3.02.08,3.16.08s2.18-.08,3.02-.08c.31,0,.45.06.45.22,0,.11-.11.17-.22.17-.2,0-.59.03-.92.08-.81.14-1.04.62-1.09,1.6-.06.9-.06,1.68-.06,6.05v4.98h0Z"/><path class="cls-1" d="M21.36,13.45c0,2.69,0,4.9.14,6.08.08.81.25,1.43,1.09,1.54.39.06,1.01.11,1.26.11.17,0,.22.08.22.17,0,.14-.14.22-.45.22-1.54,0-3.3-.08-3.44-.08s-1.9.08-2.74.08c-.31,0-.45-.06-.45-.22,0-.08.06-.17.22-.17.25,0,.59-.06.84-.11.56-.11.7-.73.81-1.54.14-1.18.14-3.39.14-6.08v-4.93c0-4.37,0-5.15-.06-6.05-.06-.95-.34-1.43-.95-1.57-.31-.08-.67-.11-.87-.11-.11,0-.22-.06-.22-.17,0-.17.14-.22.45-.22.92,0,2.69.08,2.83.08s1.9-.08,2.74-.08c.31,0,.45.06.45.22,0,.11-.11.17-.22.17-.2,0-.36.03-.7.08-.76.14-.98.62-1.04,1.6-.06.9-.06,1.68-.06,6.05v4.93h.01Z"/><path class="cls-1" d="M32.09,17.77c.06,2.3.34,3.02,1.09,3.25.53.14,1.15.17,1.4.17.14,0,.22.06.22.17,0,.17-.17.22-.5.22-1.6,0-2.72-.08-2.97-.08s-1.43.08-2.69.08c-.28,0-.45-.03-.45-.22,0-.11.08-.17.22-.17.22,0,.73-.03,1.15-.17.7-.2.84-1.01.84-3.56l.03-16.04c0-1.09.08-1.4.31-1.4s.7.62.98.9c.42.48,4.59,4.98,8.9,9.6,2.77,2.97,5.82,6.38,6.72,7.31l-.31-14.22c-.03-1.82-.22-2.44-1.09-2.66-.5-.11-1.15-.14-1.37-.14-.2,0-.22-.08-.22-.2,0-.17.22-.2.56-.2,1.26,0,2.6.08,2.91.08s1.23-.08,2.38-.08c.31,0,.5.03.5.2,0,.11-.11.2-.31.2-.14,0-.34,0-.67.08-.92.2-1.04.81-1.04,2.49l-.06,16.41c0,1.85-.06,1.99-.25,1.99-.22,0-.56-.31-2.04-1.79-.31-.28-4.34-4.4-7.31-7.59-3.25-3.5-6.41-7.03-7.31-8.04l.36,13.41h.02Z"/><path class="cls-1" d="M57.85,8.53c0-4.37,0-5.15-.06-6.05-.06-.95-.28-1.4-1.2-1.6-.22-.06-.7-.08-.95-.08-.11,0-.22-.06-.22-.17,0-.17.14-.22.45-.22,1.26,0,3.02.08,3.16.08.34,0,2.1-.08,3.78-.08,2.77,0,7.9-.25,11.23,3.19,1.4,1.46,2.72,3.78,2.72,7.11,0,3.53-1.46,6.24-3.02,7.9-1.2,1.26-3.72,3.22-8.48,3.22-1.2,0-2.69-.08-3.89-.17-1.23-.08-2.18-.17-2.32-.17-.06,0-.53,0-1.12.03-.56,0-1.2.06-1.62.06-.31,0-.45-.06-.45-.22,0-.08.06-.17.22-.17.25,0,.59-.06.84-.11.56-.11.7-.73.81-1.54.14-1.18.14-3.39.14-6.08v-4.93h-.02ZM60.2,11.55c0,2.97.03,5.54.06,6.08.03.7.08,1.82.31,2.13.36.53,1.46,1.12,4.76,1.12,2.6,0,5.01-.95,6.66-2.6,1.46-1.43,2.24-4.12,2.24-6.69,0-3.56-1.54-5.85-2.69-7.06-2.63-2.77-5.82-3.16-9.16-3.16-.56,0-1.6.08-1.82.2-.25.11-.34.25-.34.56-.03.95-.03,3.81-.03,5.96v3.47h0Z"/><path class="cls-1" d="M87.27,1.11c.34-.92.45-1.09.62-1.09s.28.14.62,1.01c.42,1.06,4.82,12.63,6.52,16.88,1.01,2.49,1.82,2.94,2.41,3.11.42.14.84.17,1.12.17.17,0,.28.03.28.17,0,.17-.25.22-.56.22-.42,0-2.46,0-4.4-.06-.53-.03-.84-.03-.84-.2,0-.11.08-.17.2-.2.17-.06.34-.31.17-.76l-2.6-6.89c-.06-.11-.11-.17-.25-.17h-6.02c-.14,0-.22.08-.28.22l-1.68,4.96c-.25.7-.39,1.37-.39,1.88,0,.56.59.81,1.06.81h.28c.2,0,.28.06.28.17,0,.17-.17.22-.42.22-.67,0-1.88-.08-2.18-.08s-1.85.08-3.16.08c-.36,0-.53-.06-.53-.22,0-.11.11-.17.25-.17.2,0,.59-.03.81-.06,1.29-.17,1.85-1.23,2.35-2.63l6.36-17.39-.02.02ZM90.18,12.31c.14,0,.14-.08.11-.2l-2.66-7.56c-.14-.42-.28-.42-.42,0l-2.46,7.56c-.06.14,0,.2.08.2h5.35Z"/><path class="cls-1" d="M105.19,13.51c0,4.12.11,5.91.62,6.41.45.45,1.18.64,3.36.64,1.48,0,2.72-.03,3.39-.84.36-.45.64-1.15.73-1.68.03-.22.08-.36.25-.36.14,0,.17.11.17.42s-.2,1.99-.42,2.8c-.2.64-.28.76-1.76.76-2.02,0-3.47-.06-4.65-.08-1.18-.06-2.04-.08-2.86-.08-.11,0-.59.03-1.15.03-.56.03-1.18.06-1.6.06-.31,0-.45-.06-.45-.22,0-.08.06-.17.22-.17.25,0,.59-.06.84-.11.56-.11.7-.73.81-1.54.14-1.18.14-3.39.14-6.08v-4.93c0-4.37,0-5.15-.06-6.05-.06-.95-.28-1.4-1.2-1.6-.22-.06-.7-.08-.95-.08-.11,0-.22-.06-.22-.17,0-.17.14-.22.45-.22,1.26,0,3.02.08,3.16.08s2.18-.08,3.02-.08c.31,0,.45.06.45.22,0,.11-.11.17-.22.17-.2,0-.59.03-.92.08-.81.14-1.04.62-1.09,1.6-.06.9-.06,1.68-.06,6.05v4.98h0Z"/><path class="cls-1" d="M119.42,8.53c0-4.37,0-5.15-.06-6.05-.06-.95-.28-1.4-1.2-1.6-.22-.06-.7-.08-.95-.08-.11,0-.22-.06-.22-.17,0-.17.14-.22.45-.22.64,0,1.4,0,2.02.03l1.15.06c.2,0,5.77,0,6.41-.03.53-.03.98-.08,1.2-.14.14-.03.25-.14.39-.14.08,0,.11.11.11.25,0,.2-.14.53-.22,1.32-.03.28-.08,1.51-.14,1.85-.03.14-.08.31-.2.31-.17,0-.22-.14-.22-.36,0-.2-.03-.67-.17-1.01-.2-.45-.48-.78-1.99-.95-.48-.06-3.53-.08-3.84-.08-.11,0-.17.08-.17.28v7.73c0,.2.03.28.17.28.36,0,3.81,0,4.45-.06.67-.06,1.06-.11,1.32-.39.2-.22.31-.36.42-.36.08,0,.14.06.14.22s-.14.64-.22,1.57c-.06.56-.11,1.6-.11,1.79,0,.22,0,.53-.2.53-.14,0-.2-.11-.2-.25,0-.28,0-.56-.11-.92-.11-.39-.36-.87-1.46-.98-.76-.08-3.53-.14-4-.14-.14,0-.2.08-.2.2v2.46c0,.95-.03,4.2,0,4.79.08,1.93.5,2.3,3.25,2.3.73,0,1.96,0,2.69-.31s1.06-.87,1.26-2.02c.06-.31.11-.42.25-.42.17,0,.17.22.17.42,0,.22-.22,2.13-.36,2.72-.2.73-.42.73-1.51.73-2.1,0-3.64-.06-4.73-.08-1.09-.06-1.76-.08-2.18-.08-.06,0-.53,0-1.12.03-.56,0-1.2.06-1.62.06-.31,0-.45-.06-.45-.22,0-.08.06-.17.22-.17.25,0,.59-.06.84-.11.56-.11.7-.73.81-1.54.14-1.18.14-3.39.14-6.08v-4.97Z"/><path class="cls-1" d="M166.43,17.96c.11,1.01.31,2.58,1.51,2.97.81.25,1.54.25,1.82.25.14,0,.22.03.22.14,0,.17-.25.25-.59.25-.62,0-3.64-.08-4.68-.17-.64-.06-.78-.14-.78-.28,0-.11.06-.17.2-.2s.17-.5.11-1.01l-1.34-14.45h-.08l-6.86,14.56c-.59,1.23-.67,1.48-.92,1.48-.2,0-.34-.28-.87-1.29-.73-1.37-3.14-6.22-3.28-6.5-.25-.5-3.39-7.22-3.7-7.98h-.11l-1.12,12.99c-.03.45-.03.95-.03,1.43,0,.42.31.78.73.87.48.11.9.14,1.06.14.11,0,.22.06.22.14,0,.2-.17.25-.5.25-1.04,0-2.38-.08-2.6-.08-.25,0-1.6.08-2.35.08-.28,0-.48-.06-.48-.25,0-.08.14-.14.28-.14.22,0,.42,0,.84-.08.92-.17,1.01-1.26,1.12-2.32l2.02-18.26c.03-.31.14-.5.31-.5s.28.11.42.42l8.57,17.61L163.8.45C163.91.2,164.02,0,164.22,0s.28.22.34.76l1.88,17.19h0Z"/><path class="cls-1" d="M179.59,1.11c.34-.92.45-1.09.62-1.09s.28.14.62,1.01c.42,1.06,4.82,12.63,6.52,16.88,1.01,2.49,1.82,2.94,2.41,3.11.42.14.84.17,1.12.17.17,0,.28.03.28.17,0,.17-.25.22-.56.22-.42,0-2.46,0-4.4-.06-.53-.03-.84-.03-.84-.2,0-.11.08-.17.2-.2.17-.06.34-.31.17-.76l-2.6-6.89c-.06-.11-.11-.17-.25-.17h-6.02c-.14,0-.22.08-.28.22l-1.68,4.96c-.25.7-.39,1.37-.39,1.88,0,.56.59.81,1.06.81h.28c.2,0,.28.06.28.17,0,.17-.17.22-.42.22-.67,0-1.88-.08-2.18-.08s-1.85.08-3.16.08c-.36,0-.53-.06-.53-.22,0-.11.11-.17.25-.17.2,0,.59-.03.81-.06,1.29-.17,1.85-1.23,2.35-2.63l6.36-17.39-.02.02ZM182.5,12.31c.14,0,.14-.08.11-.2l-2.66-7.56c-.14-.42-.28-.42-.42,0l-2.46,7.56c-.06.14,0,.2.08.2h5.35Z"/><path class="cls-1" d="M197.51,13.51c0,4.12.11,5.91.62,6.41.45.45,1.18.64,3.36.64,1.48,0,2.72-.03,3.39-.84.36-.45.64-1.15.73-1.68.03-.22.08-.36.25-.36.14,0,.17.11.17.42s-.2,1.99-.42,2.8c-.2.64-.28.76-1.76.76-2.02,0-3.47-.06-4.65-.08-1.18-.06-2.04-.08-2.86-.08-.11,0-.59.03-1.15.03-.56.03-1.18.06-1.6.06-.31,0-.45-.06-.45-.22,0-.08.06-.17.22-.17.25,0,.59-.06.84-.11.56-.11.7-.73.81-1.54.14-1.18.14-3.39.14-6.08v-4.93c0-4.37,0-5.15-.06-6.05-.06-.95-.28-1.4-1.2-1.6-.22-.06-.7-.08-.95-.08-.11,0-.22-.06-.22-.17,0-.17.14-.22.45-.22,1.26,0,3.02.08,3.16.08s2.18-.08,3.02-.08c.31,0,.45.06.45.22,0,.11-.11.17-.22.17-.2,0-.59.03-.92.08-.81.14-1.04.62-1.09,1.6-.06.9-.06,1.68-.06,6.05v4.98h0Z"/><path class="cls-1" d="M214.08,13.51c0,4.12.11,5.91.62,6.41.45.45,1.18.64,3.36.64,1.48,0,2.72-.03,3.39-.84.36-.45.64-1.15.73-1.68.03-.22.08-.36.25-.36.14,0,.17.11.17.42s-.2,1.99-.42,2.8c-.2.64-.28.76-1.76.76-2.02,0-3.47-.06-4.65-.08-1.18-.06-2.04-.08-2.86-.08-.11,0-.59.03-1.15.03-.56.03-1.18.06-1.6.06-.31,0-.45-.06-.45-.22,0-.08.06-.17.22-.17.25,0,.59-.06.84-.11.56-.11.7-.73.81-1.54.14-1.18.14-3.39.14-6.08v-4.93c0-4.37,0-5.15-.06-6.05-.06-.95-.28-1.4-1.2-1.6-.22-.06-.7-.08-.95-.08-.11,0-.22-.06-.22-.17,0-.17.14-.22.45-.22,1.26,0,3.02.08,3.16.08s2.18-.08,3.02-.08c.31,0,.45.06.45.22,0,.11-.11.17-.22.17-.2,0-.59.03-.92.08-.81.14-1.04.62-1.09,1.6-.06.9-.06,1.68-.06,6.05v4.98h0Z"/></svg>